<svg xmlns="http://www.w3.org/2000/svg" enable-background="new 0 0 24 24" height="24px" viewBox="0 0 24 24" width="24px" fill="#FFFFFF"><g><rect fill="none" height="24" width="24"/></g><g><g><path d="M23.076,16.729l-1.26,-8.856c-0.324,-2.278 -2.278,-3.966 -4.579,-3.966l-10.474,0c-2.301,0 -4.255,1.688 -4.579,3.966l-1.26,8.856c-0.254,1.78 1.122,3.364 2.914,3.364c0.786,0 1.526,-0.312 2.081,-0.867l2.613,-2.601l6.936,0l2.602,2.601c0.555,0.555 1.306,0.867 2.081,0.867c1.803,0 3.179,-1.584 2.925,-3.364Zm-12.232,-5.885l-2.312,0l0,2.312l-1.157,0l0,-2.312l-2.312,0l0,-1.156l2.312,0l0,-2.313l1.157,0l0,2.313l2.312,0l0,1.156Zm4.624,-1.156c-0.635,0 -1.156,-0.521 -1.156,-1.156c0,-0.636 0.521,-1.157 1.156,-1.157c0.636,0 1.157,0.521 1.157,1.157c0,0.635 -0.521,1.156 -1.157,1.156Zm2.313,3.468c-0.636,0 -1.156,-0.52 -1.156,-1.156c0,-0.636 0.52,-1.156 1.156,-1.156c0.636,0 1.156,0.52 1.156,1.156c0,0.636 -0.52,1.156 -1.156,1.156Z"/></g></g></svg>